<svg width="10" height="8" viewBox="0 0 10 8" fill="none" xmlns="http://www.w3.org/2000/svg">
<path d="M3.65385 8C3.56837 7.99971 3.48386 7.98069 3.40557 7.94412C3.32729 7.90755 3.25689 7.85422 3.19876 7.78744L0.168983 4.35333C0.0557262 4.22473 -0.00494535 4.05345 0.000315705 3.87719C0.00292071 3.78991 0.0216343 3.70403 0.0553878 3.62446C0.0891412 3.54489 0.137274 3.47318 0.197037 3.41343C0.2568 3.35368 0.327024 3.30705 0.403699 3.27622C0.480374 3.24538 0.561998 3.23094 0.643911 3.23371C0.809342 3.23932 0.965907 3.31472 1.07916 3.44332L3.64762 6.35933L8.89051 0.24833C8.94372 0.177736 9.0099 0.119477 9.08501 0.0771309C9.16012 0.0347848 9.24256 0.00924574 9.32726 0.00208235C9.41197 -0.00508104 9.49716 0.00628254 9.57759 0.035475C9.65803 0.0646674 9.73202 0.111072 9.79501 0.17184C9.858 0.232607 9.90866 0.306454 9.9439 0.388844C9.97913 0.471235 9.99817 0.56043 9.99988 0.650951C10.0016 0.741471 9.98589 0.831407 9.95378 0.915233C9.92167 0.999059 9.87382 1.07501 9.81316 1.13841L4.11518 7.7808C4.0576 7.84879 3.98745 7.90336 3.90913 7.94108C3.83082 7.9788 3.74603 7.99886 3.66009 8H3.65385Z" fill="white"/>
</svg>
